<?xml version="1.0" encoding="utf-8"?>
<svg width="20px" height="24px" viewBox="0 0 20 24" version="1.1" xmlns:xlink="http://www.w3.org/1999/xlink" xmlns="http://www.w3.org/2000/svg">
  <desc>Created with Lunacy</desc>
  <defs>
    <rect width="20" height="24" id="artboard_1" />
    <clipPath id="clip_1">
      <use xlink:href="#artboard_1" clip-rule="evenodd" />
    </clipPath>
  </defs>
  <g id="TrashIconGrey" clip-path="url(#clip_1)">
    <use xlink:href="#artboard_1" stroke="none" fill="#FFFFFF" />
    <path d="M20 5.25C19.9987 4.00787 18.9663 3.00124 17.6923 3L13.0769 3L13.0769 2.25C13.0757 1.00787 12.0432 0.00124027 10.7692 0L9.23077 0C7.95679 0.00124027 6.92435 1.00787 6.92308 2.25L6.92308 3L2.30769 3C1.03372 3.00124 0.00127207 4.00787 0 5.25L0 6.75C0 7.16421 0.344396 7.5 0.769231 7.5L1.53846 7.5L1.53846 21.75C1.53973 22.9921 2.57218 23.9988 3.84615 24L16.1538 24C17.4278 23.9988 18.4603 22.9921 18.4615 21.75L18.4615 7.5L19.2308 7.5C19.6556 7.5 20 7.16421 20 6.75L20 5.25ZM8.46154 3L8.46154 2.25C8.46154 1.83579 8.80593 1.5 9.23077 1.5L10.7692 1.5C11.1941 1.5 11.5385 1.83579 11.5385 2.25L11.5385 3L8.46154 3ZM18.4615 5.25L18.4615 6L1.53846 6L1.53846 5.25C1.53846 4.83579 1.88286 4.5 2.30769 4.5L17.6923 4.5C18.1171 4.5 18.4615 4.83579 18.4615 5.25ZM16.9231 21.75C16.9231 22.1642 16.5787 22.5 16.1538 22.5L3.84615 22.5C3.42132 22.5 3.07692 22.1642 3.07692 21.75L3.07692 7.5L16.9231 7.5L16.9231 21.75ZM7.2 18.4667C7.2 18.8717 6.84183 19.2 6.4 19.2C5.95817 19.2 5.6 18.8717 5.6 18.4667L5.6 11.1333C5.6 10.7283 5.95817 10.4 6.4 10.4C6.84183 10.4 7.2 10.7283 7.2 11.1333L7.2 18.4667ZM11.2 18.4667C11.2 18.8717 10.8418 19.2 10.4 19.2C9.95817 19.2 9.6 18.8717 9.6 18.4667L9.6 11.1333C9.6 10.7283 9.95817 10.4 10.4 10.4C10.8418 10.4 11.2 10.7283 11.2 11.1333L11.2 18.4667ZM14.4 18.4667C14.4 18.8717 14.0418 19.2 13.6 19.2C13.1582 19.2 12.8 18.8717 12.8 18.4667L12.8 11.1333C12.8 10.7283 13.1582 10.4 13.6 10.4C14.0418 10.4 14.4 10.7283 14.4 11.1333L14.4 18.4667Z" id="TrashIcon" fill="#D5D5D5" fill-rule="evenodd" stroke="none" />
  </g>
</svg>